<svg width="90" height="34" viewBox="0 0 90 34" fill="none" xmlns="http://www.w3.org/2000/svg">
<path d="M87.1808 23.5385V14.8205C87.1808 9.46769 84.262 4.98667 79.1719 3.80103V2.61538C79.1719 1.16821 77.9794 0 76.5022 0C75.025 0 73.8325 1.16821 73.8325 2.61538V3.80103C68.7246 4.98667 65.8236 9.45026 65.8236 14.8205V23.5385L63.5277 25.7877C62.4064 26.8862 63.1895 28.7692 64.7735 28.7692H88.2131C89.7971 28.7692 90.598 26.8862 89.4767 25.7877L87.1808 23.5385ZM76.5022 34C78.4599 34 80.0617 32.4308 80.0617 30.5128H72.9427C72.9427 32.4308 74.5266 34 76.5022 34Z" fill="#FF0404"/>
</svg>
